<?xml version="1.0" encoding="UTF-8"?> <!-- Generator: Adobe Illustrator 19.0.0, SVG Export Plug-In . SVG Version: 6.00 Build 0) --> <svg xmlns="http://www.w3.org/2000/svg" xmlns:xlink="http://www.w3.org/1999/xlink" version="1.1" id="Layer_1" x="0px" y="0px" viewBox="0 0 507.866 149.673" style="enable-background:new 0 0 507.866 149.673;" xml:space="preserve"> <path style="fill:#F89734;" d="M86.369,99.804c-0.934-4.035-1.424-8.259-1.424-12.595c0-4.208,0.459-8.291,1.345-12.215 c1.481-6.62,4.148-12.747,7.737-18.131c-5.087-9.027-16.115-18.248-36.294-18.3c-16.764-0.037-29.166,4.326-35.358,7.893 l5.253,18.642c6.221-4.413,15.942-7.081,25.637-7.04c14.164,0.037,16.791,7.157,16.761,11.599v1.779 c-32.678-1.005-53.935,10.493-53.985,34.44c-0.024,15.09,10.531,28.418,29.088,28.468c11.457,0.041,20.314-3.5,26.56-11.458h0.836 l1.753,9.746l25.634,0.066c-0.341-2.006-0.853-6.08-1.156-9.061C92.832,117.09,88.481,108.919,86.369,99.804 M70.854,98.899 c0,1.803-0.915,3.578-0.915,4.441c-1.816,6.194-7.971,10.636-15.04,10.623c-6.192-0.025-11.471-3.566-11.458-10.702 c0.014-10.608,12.397-14.133,27.425-14.107L70.854,98.899z"></path> <path style="fill:#F89734;" d="M191.54,101.068V61.384h11.327c1.591-9.315,7.511-17.156,15.63-21.369H191.54V15.194l-27.678,7.444 v17.364h-30.335v0.013c-0.128-0.013-0.256,0-0.383,0c0.127,0,0.255,0,0.383,0.015v0.014c-0.128-0.014-0.256-0.014-0.383-0.014 h-0.142c-10.372,0.284-19.85,4.348-27.28,10.954c-7.218,6.394-12.475,15.203-14.735,25.248c-0.596,2.643-0.98,5.371-1.135,8.155 c0,0.171-0.015,0.327-0.015,0.498c-0.043,0.767-0.057,1.535-0.057,2.316v0.085c0,0.639,0.014,1.279,0.043,1.904 c0.113,3.197,0.539,6.322,1.236,9.32c3.353,14.464,12.958,26.3,25.603,32.054c5.854,2.302,12.546,3.595,19.991,3.751 c0.497,0.015,0.994,0.028,1.492,0.028c8.326,0.03,18.94-0.951,29.354-5.838c-1.534-1.634-2.97-3.582-4.205-5.741 c-1.492-2.543-2.7-5.413-3.453-8.454c-0.412-1.634-0.697-3.339-0.824-5.057c-4.732,1.221-10.898,2.514-15.458,2.94 c-12.859,1.165-23.118-4.745-27.153-15.202c-1.193-3.112-1.846-6.636-1.846-10.5c0-3.453,0.497-6.408,1.306-8.966 c4.846-15.359,17.363-14.989,31.728-15.501c5.413-0.199,10.968-0.085,16.268-0.085v44.316c0,2.798,0.411,5.498,1.179,8.055 c0.483,1.634,1.108,3.197,1.876,4.689c4.645,9.107,14.108,15.344,25.049,15.344h9.556c0,0,9.81-18.525,10.724-20.356 C208.552,113.987,191.54,116.356,191.54,101.068"></path> <path style="fill:#46B754;" d="M428.303,50.301c-0.1-0.341-0.199-0.71-0.299-1.051c-0.213-0.796-0.412-1.535-0.611-2.217 c-0.142-0.568-0.298-1.08-0.411-1.577c-0.668-2.429-1.066-3.864-1.066-3.864c-2.557-0.98-6.025-1.605-8.099-1.605 c-2.557,0-5.257,0.497-7.943,1.562c-4.532,1.762-8.979,5.059-12.546,9.988c-1.704,2.288-3.182,4.945-4.361,7.971l-1.776-16.936 l-16.751-0.029h-15.406v6.748c6.947,6.826,12.034,15.76,14.295,25.874c0.87,3.852,1.322,7.86,1.322,11.991 c0,4.256-0.482,8.405-1.399,12.366c-2.31,9.971-7.347,18.798-14.218,25.542v9.279h37.257v-52.57 c4.604-17.462,26.357-17.761,37.596-10.841C431.798,63.231,429.781,55.772,428.303,50.301"></path> <path style="fill:#46B754;" d="M325.394,40.095c-0.341,0-0.668,0-1.009,0.014c1.123,0.015,2.217,0.057,3.283,0.143 c-1.066-0.072-2.16-0.115-3.283-0.128h-0.141c-20.446,0.553-37.453,15.813-42.014,36.202c-0.796,3.524-1.208,7.189-1.208,10.969 c0,3.893,0.441,7.686,1.278,11.31c4.775,20.602,22.251,35.875,43.094,35.875c15.004,0,28.275-7.928,36.303-20.076H330.14 c-0.839,0-1.648-0.014-2.458-0.07c-0.81-0.043-1.62-0.1-2.401-0.171c-0.781-0.072-1.564-0.171-2.316-0.299 c-0.767-0.128-1.506-0.27-2.231-0.426c-0.725-0.156-1.435-0.341-2.131-0.554c-0.682-0.213-1.364-0.441-2.004-0.696 c-1.306-0.483-2.529-1.08-3.651-1.791c-0.284-0.156-0.554-0.341-0.824-0.539c-0.27-0.171-0.54-0.37-0.795-0.568 c-0.256-0.2-0.498-0.412-0.739-0.612c-1.464-1.264-2.671-2.757-3.595-4.49c-0.313-0.568-0.583-1.179-0.81-1.804 c-0.128-0.355-0.256-0.711-0.37-1.08c-0.07-0.27-0.156-0.54-0.213-0.824c-0.013-0.043-0.028-0.1-0.043-0.142 c-0.07-0.285-0.128-0.568-0.184-0.867c-0.071-0.327-0.128-0.668-0.157-1.008c-0.071-0.398-0.113-0.825-0.141-1.25 c0-0.043-0.015-0.086-0.015-0.128V97.07l59.69,0.171l4.006,0.014c0.014-0.042,0.014-0.071,0.029-0.114l0.284-1.62 c0.454-2.671,0.682-5.427,0.682-8.24C369.753,61.222,349.889,40.095,325.394,40.095 M346.067,45.708 c-1.037-0.626-2.131-1.194-3.268-1.734C343.936,44.5,345.03,45.082,346.067,45.708 M340.384,77.619v0.014l-4.944-0.014h-30.378v-0.1 h-0.852v-0.014h0.852v-0.014v-0.028c0.085-9.577,8.326-17.462,18.94-18.571h0.014c0.014-0.013,0.043-0.013,0.072-0.013 c0.809-0.085,1.647-0.128,2.486-0.128c11.878,0,21.511,8.454,21.511,18.868H340.384z M354.237,52.442 c0.781,0.853,1.507,1.748,2.188,2.671C355.729,54.19,355.005,53.295,354.237,52.442"></path> <path style="fill:#46B754;" d="M461.342,39.954c0,0-15.893,60.198-17.726,67.35c-0.881-3.634-4.056-15.504-8.306-31.197 c-10.395-5.549-22.362-5.959-29.457-0.607l0.679,1.861l20.883,56.984h29.565l34.844-94.326L461.342,39.954z"></path> <polygon style="fill:#46B754;" points="374.44,42.543 367.051,42.543 367.051,42.529 "></polygon> <path style="fill:#46B754;" d="M257.732,78.568l-21.981-2.841c-6.083-0.476-8.417-2.356-8.417-6.996v-1.287 c0-3.931,3.199-7.129,7.128-7.129h49.598c5.188-8.973,12.879-16.127,22.046-20.359h-9.565L234.3,39.959 c-14.969,0-27.147,12.178-27.147,27.148v5.068c0,12.207,8.653,21.5,22.106,22.439l24.65,2.54c5.595,0.589,8.417,3.777,8.417,8.417 s-3.778,8.416-8.417,8.416h-36.916l-10.37,20.357h46.483c16.115,0,29.226-13.111,29.226-29.227v-3.369 C282.332,88.182,273.063,79.378,257.732,78.568"></path> </svg> 